<svg xmlns="http://www.w3.org/2000/svg" width="52" height="54" fill="none" viewBox="0 0 52 54">
  <g filter="url(#a)">
    <path fill="#5ED5A8" d="M16 17v14c0 .83.94 1.3 1.6.8l1.71-1.28c.4-.3.96-.26 1.32.1l1.66 1.67c.39.39 1.03.39 1.42 0l1.68-1.68c.35-.35.91-.39 1.3-.09l1.71 1.28c.66.49 1.6.02 1.6-.8V14c0-1.1.9-2 2-2H20c-3 0-4 1.79-4 4v1Z"/>
    <path fill="#5ED5A8" d="M32.01 12v1.5c.66 0 1.29.27 1.75.72.48.49.74 1.12.74 1.78v2.42c0 .74-.33 1.08-1.08 1.08H31.5v-5.49c0-.28.23-.51.51-.51V12Zm0 0c-1.11 0-2.01.9-2.01 2.01V21h3.42C35 21 36 20 36 18.42V16c0-1.1-.45-2.1-1.17-2.83A4.044 4.044 0 0 0 32.01 12c.01 0 0 0 0 0Z"/>
  </g>
  <defs>
    <filter id="a" width="52" height="52.582" x="0" y="1" color-interpolation-filters="sRGB" filterUnits="userSpaceOnUse">
      <feFlood flood-opacity="0" result="BackgroundImageFix"/>
      <feColorMatrix in="SourceAlpha" result="hardAlpha" values="0 0 0 0 0 0 0 0 0 0 0 0 0 0 0 0 0 0 127 0"/>
      <feOffset dy="5"/>
      <feGaussianBlur stdDeviation="8"/>
      <feComposite in2="hardAlpha" operator="out"/>
      <feColorMatrix values="0 0 0 0 0.368627 0 0 0 0 0.835294 0 0 0 0 0.658824 0 0 0 0.25 0"/>
      <feBlend in2="BackgroundImageFix" result="effect1_dropShadow_858_16872"/>
      <feBlend in="SourceGraphic" in2="effect1_dropShadow_858_16872" result="shape"/>
    </filter>
  </defs>
</svg>
