<svg xmlns="http://www.w3.org/2000/svg" width="24" height="24" fill="none" viewBox="0 0 24 24">
  <path fill="#E42D04" fill-rule="evenodd" d="M12 24C5.4 24 0 18.6 0 11.94.06 5.34 5.4-.06 12.06 0 18.66.06 24 5.4 24 12.12 23.94 18.66 18.6 24 12 24Z" clip-rule="evenodd"/>
  <path fill="#fff" fill-rule="evenodd" d="M12.234 20.8c.87 0 3.105-.392 5.074-1.963 2.265-1.806 2.478-2.813 2.616-3.463l.035-.161c.023-.098.036-.23.041-.387a7.01 7.01 0 0 0-1.92-.029c-1.273.151-2.272 1.02-2.613 1.435-.19-.944-1.114-2.832-3.295-2.832S8.814 15.288 8.5 16.232c-.202-.352-.954-1.133-2.348-1.435A4.387 4.387 0 0 0 4 14.86c.042.702.273 1.45.887 2.24 1.057 1.36 2.696 2.199 3.427 2.573l.209.108c.568.302 2.12 1.02 3.71 1.02Z" clip-rule="evenodd"/>
  <path fill="#FFAA35" fill-rule="evenodd" d="M19.998 14.799a7.019 7.019 0 0 0-1.919-.03c-1.272.151-2.27 1.017-2.611 1.431-.19-.94-1.113-2.823-3.293-2.823S8.819 15.259 8.504 16.2c-.202-.351-.954-1.129-2.347-1.43a4.392 4.392 0 0 0-2.15.062c-.038-.638.08-1.237.206-1.794.212-.934.744-2.17.984-2.673-.215-.514-.712-1.973-.984-3.69-.273-1.716.19-2.873.454-3.237.429.113 1.453.467 2.12.979.666.512 1.69 1.644 2.119 2.146.555-.15 1.983-.452 3.255-.452 1.271 0 2.498.301 2.952.452.378-.452 1.31-1.514 2.006-2.146.696-.633 1.829-.941 2.308-1.017.127.164.394.64.454 1.243.076.753-.15 2.334-.454 3.388a79.206 79.206 0 0 1-.68 2.221c.062.138.28.587.643 1.28.385.735.634 2.39.608 3.267Z" clip-rule="evenodd"/>
  <path fill="#000" d="M13.787 18.149a2.23 2.23 0 0 0-.225.452v-.038l-.112-.903c-.212.025-.765.075-1.275.075-.51 0-1.113-.05-1.35-.075l-.037.903a2.78 2.78 0 0 1-.15-.264c-.075-.15-.338-.376-.338-.489 0-.09-.125-.288-.188-.376l-.112-.15h.675l.15.112c.125-.012.443-.022.713.038.27.06.437-.176.487-.301v-.602a4.5 4.5 0 0 0-.6-.339c-.263-.113-.525-.564-.45-1.016.075-.452.3-.602.45-.565.15.038 1.125-.037 1.275 0 .15.038.413.113.525.301.113.189.037.941-.188 1.205-.18.21-.525.363-.675.414v.602c0 .075.263.263.3.301.038.038.6 0 .713 0 .09 0 .162-.075.188-.113h.637v.15c0 .076-.112.415-.15.452-.038.038-.15.076-.263.226Z"/>
  <path fill="#000" d="m12.58 17.9-.38.3-.305-.3-.266.134-.23-.233H13l-.228.266-.19-.166Zm-4.1-6.154a7.046 7.046 0 0 0-1.115-.346c-.05.026-.149.108-.149.231 0 .154-.037.308 0 .615.037.308.335.5.856.731.52.231 1.413.423 2.045.423.632 0 .037-.654-.186-.807-.223-.154-.892-.616-1.45-.847Z"/>
  <path fill="#fff" d="M9.092 10.726c-.334.06-.796.074-.986.074-.19-.024-.59-.141-.682-.41-.114-.335.19-.708.569-.894.379-.187.871-.112 1.175.335.303.447.34.82-.076.895Z"/>
  <path fill="#000" d="M15.919 11.546c.446-.184.93-.307 1.116-.346.05.026.148.108.148.231 0 .154.038.308 0 .615-.037.308-.334.5-.855.731-.52.23-1.413.423-2.045.423-.633 0-.038-.654.185-.807.224-.154.893-.616 1.45-.847Z"/>
  <path fill="#fff" d="M14.708 10.726c.334.06.796.074.986.074.189-.025.59-.141.682-.41.113-.335-.19-.708-.569-.894-.379-.187-.872-.112-1.175.335-.303.447-.34.82.076.895Z"/>
  <path fill="#FF8C30" d="M6.486 7.935c-.272.298-.795.968-1.022 1.265a8.09 8.09 0 0 1-.606-2.046c-.12-.863-.025-2.195.038-2.754.164.013.644.15 1.25.596C6.75 5.442 7.633 6.273 8 6.633c-.39.31-1.241 1.005-1.514 1.302Z"/>
  <path fill="#FF9A32" fill-rule="evenodd" d="M4.8 5.11c.596.248 1.38.627 1.708.97.333.349.626.81.8 1.12.26-.216.52-.424.692-.56-.37-.36-1.263-1.194-1.875-1.642-.613-.448-1.097-.585-1.263-.598-.02.174-.043.423-.062.71Z" clip-rule="evenodd"/>
  <path fill="#FF8C30" d="M17.314 7.935c.273.298.795.968 1.022 1.265a8.092 8.092 0 0 0 .606-2.046c.12-.863.025-2.195-.038-2.754-.164.013-.644.15-1.25.596-.605.446-1.488 1.277-1.854 1.637.391.31 1.241 1.005 1.514 1.302Z"/>
  <path fill="#FF9A32" fill-rule="evenodd" d="M19 5.11c-.596.248-1.38.627-1.707.97-.334.349-.627.81-.8 1.12a46.301 46.301 0 0 0-.693-.56c.37-.36 1.263-1.194 1.875-1.642.613-.448 1.098-.585 1.263-.598.02.174.043.423.062.71Z" clip-rule="evenodd"/>
</svg>
