<svg xmlns="http://www.w3.org/2000/svg" width="24" height="24" fill="none" viewBox="0 0 24 24">
  <circle cx="12" cy="12" r="12" fill="#E84142"/>
  <path fill="#fff" fill-rule="evenodd" d="M12.718 3.562c-.416-.718-1.077-.718-1.493 0l-7.55 13.294c-.415.728-.075 1.304.756 1.304h3.79a2.4 2.4 0 0 0 1.87-1.096l4.564-7.908c.33-.68.33-1.484 0-2.164l-1.36-2.39-.577-1.04Zm5.017 8.75c-.415-.718-1.086-.718-1.502 0l-2.636 4.545c-.407.718-.066 1.303.756 1.303h5.215c.832 0 1.172-.585.756-1.303l-2.589-4.545Z" clip-rule="evenodd"/>
</svg>
