<svg xmlns="http://www.w3.org/2000/svg" width="25" height="25" fill="none" viewBox="0 0 25 25">
  <path fill="#F7931A" d="M23.656 14.914c-1.604 6.434-8.12 10.349-14.554 8.745C2.67 22.055-1.245 15.539.36 9.104 1.963 2.671 8.479-1.245 14.91.36c6.434 1.604 10.349 8.121 8.745 14.555Z"/>
  <path fill="#fff" fill-rule="evenodd" d="M17.302 10.298c.24-1.598-.978-2.457-2.641-3.03l.54-2.165-1.318-.329-.526 2.108a54.73 54.73 0 0 0-1.056-.248l.53-2.122-1.317-.328-.54 2.164a43.49 43.49 0 0 1-.842-.198l.002-.007-1.818-.454-.35 1.408s.978.224.957.238c.534.133.63.486.614.766l-.615 2.466c.037.01.085.023.137.044l-.038-.01-.101-.024-.862 3.455c-.065.162-.23.405-.604.313.014.019-.957-.24-.957-.24l-.655 1.51 1.715.427c.188.047.374.095.557.143l.383.1-.546 2.189 1.317.328.54-2.166c.36.097.708.187 1.05.272l-.538 2.156 1.317.329.546-2.186c2.247.426 3.937.254 4.648-1.778.573-1.637-.029-2.58-1.211-3.196.861-.199 1.51-.765 1.683-1.935Zm-3.01 4.222c-.374 1.501-2.724.88-3.8.597a10.684 10.684 0 0 0-.257-.067l.724-2.901c.09.022.2.047.324.075 1.112.25 3.391.76 3.008 2.296Zm-2.786-3.642c.897.239 2.852.76 3.193-.604.348-1.395-1.553-1.816-2.481-2.022a11.505 11.505 0 0 1-.272-.062l-.656 2.631c.062.015.135.035.216.057Z" clip-rule="evenodd"/>
</svg>
