<svg xmlns="http://www.w3.org/2000/svg" width="44" height="44" fill="none" viewBox="0 0 44 44">
  <path fill="#5ED5A8" fill-rule="evenodd" d="M21.25 28c0 .41.34.75.75.75s.75-.34.75-.75v-.58h.65c1.48 0 2.68-1.25 2.69-2.78 0-1.79-1.05-2.37-1.83-2.64l-1.51-.532V18.08h.36c.81 0 1.47.71 1.47 1.58 0 .41.34.75.75.75s.75-.34.75-.75c0-1.7-1.33-3.08-2.97-3.08h-.36V16c0-.41-.34-.75-.75-.75s-.75.34-.75.75v.58h-.65c-1.48 0-2.69 1.24-2.69 2.78 0 1.79 1.05 2.37 1.83 2.64l1.51.532v3.388h-.36c-.81 0-1.47-.71-1.47-1.58 0-.41-.34-.75-.75-.75s-.75.34-.75.75c0 1.7 1.33 3.08 2.97 3.08h.36V28Zm1.5-2.08h.65c.65 0 1.19-.58 1.19-1.28 0-.87-.31-1.04-.82-1.22l-1.02-.36v2.86Zm-1.5-4.98v-2.86h-.65c-.65 0-1.19.58-1.19 1.28 0 .87.31 1.04.82 1.22l1.02.36Z" clip-rule="evenodd"/>
  <path fill="#5ED5A8" d="M22 32.75c-5.93 0-10.75-4.82-10.75-10.75S16.07 11.25 22 11.25 32.75 16.07 32.75 22 27.93 32.75 22 32.75Zm0-20c-5.1 0-9.25 4.15-9.25 9.25s4.15 9.25 9.25 9.25 9.25-4.15 9.25-9.25-4.15-9.25-9.25-9.25Z"/>
</svg>
