<svg xmlns="http://www.w3.org/2000/svg" width="22" height="22" fill="none" viewBox="0 0 22 22">
  <path fill="#5ED5A8" fill-opacity=".1" d="M2.015 4.553h4.244V3.91c0-.806.645-1.451 1.45-1.451h6.582c.806 0 1.45.645 1.45 1.45v.645h4.244A2.03 2.03 0 0 1 22 6.568v10.96a2.03 2.03 0 0 1-2.015 2.014H2.015A2.03 2.03 0 0 1 0 17.528V6.568C0 5.44.913 4.553 2.015 4.553Z"/>
  <path fill="#5ED5A8" d="M14.048 9.012a4.261 4.261 0 0 0-3.035-1.235 4.285 4.285 0 0 0-3.035 1.262 4.285 4.285 0 0 0-1.263 3.036c0 1.182.484 2.256 1.263 3.035a4.285 4.285 0 0 0 3.035 1.262 4.285 4.285 0 0 0 3.035-1.262 4.285 4.285 0 0 0 1.263-3.035 4.537 4.537 0 0 0-1.263-3.063Zm-3.035-2.364c1.477 0 2.847.591 3.814 1.585a5.425 5.425 0 0 1 1.585 3.815 5.314 5.314 0 0 1-1.585 3.814 5.426 5.426 0 0 1-3.814 1.585 5.314 5.314 0 0 1-3.814-1.585 5.426 5.426 0 0 1-1.585-3.814 5.31 5.31 0 0 1 1.585-3.815 5.314 5.314 0 0 1 3.814-1.585Z"/>
  <path fill="#5ED5A8" fill-opacity=".1" d="M18.857 8.744a1.075 1.075 0 1 0 0-2.15 1.075 1.075 0 0 0 0 2.15Zm-7.844 6.258a2.955 2.955 0 1 0 0-5.91 2.955 2.955 0 0 0 0 5.91Z" opacity=".1"/>
</svg>
