<svg xmlns="http://www.w3.org/2000/svg" width="24" height="24" fill="none" viewBox="0 0 24 24">
  <circle cx="12" cy="12" r="12" fill="#EDF0F4"/>
  <path fill="#0033AD" d="M8.386 11.939c-.034.593.422 1.1 1.015 1.134h.064c.598 0 1.08-.482 1.076-1.079 0-.597-.482-1.08-1.08-1.075-.571 0-1.045.448-1.075 1.02Zm-4.019-.279a.349.349 0 1 0-.038.695.349.349 0 0 0 .038-.694Zm3.951-5.976a.352.352 0 0 0 .154-.47.352.352 0 0 0-.47-.153.347.347 0 0 0-.153.465.345.345 0 0 0 .47.158s-.005 0 0 0ZM9.41 7.59a.538.538 0 0 0-.482-.959.538.538 0 0 0 .482.96ZM5.732 8.9a.446.446 0 0 0 .615-.127.446.446 0 0 0-.128-.614.446.446 0 0 0-.615.128.442.442 0 0 0 .128.614Zm.653 2.57a.536.536 0 0 0-.567.507.537.537 0 0 0 .508.568.539.539 0 0 0 .06-1.075Zm-.593 3.613a.445.445 0 1 0 .403.794.445.445 0 0 0-.403-.794Zm2.091-4.728a.628.628 0 0 0 .874-.183.628.628 0 0 0-.183-.875.628.628 0 0 0-.875.184.63.63 0 0 0 .184.874Zm6.635-2.806a.541.541 0 0 0 .746-.154.541.541 0 0 0-.153-.747.541.541 0 0 0-.747.154.533.533 0 0 0 .153.747Zm1.1-1.899c.162.106.376.06.482-.103a.347.347 0 0 0-.102-.482.35.35 0 0 0-.482.098.36.36 0 0 0 .102.487Zm-1.02 5.26a1.075 1.075 0 0 0-1.135 1.015 1.075 1.075 0 0 0 1.016 1.135h.06a1.077 1.077 0 0 0 .06-2.15Zm-4.834-.631a1.077 1.077 0 1 0 1.924-.973 1.075 1.075 0 0 0-1.446-.478 1.081 1.081 0 0 0-.478 1.45ZM18.207 8.9a.445.445 0 1 0-.601-.196.45.45 0 0 0 .601.196Zm-2.73.343a.633.633 0 1 0 .568 1.13.633.633 0 0 0-.568-1.13Zm-3.52-3.755a.45.45 0 0 0 .47-.418.447.447 0 0 0-.418-.47.446.446 0 0 0-.47.414.45.45 0 0 0 .418.474Zm-.004 2.786a.628.628 0 0 0 .666-.597.628.628 0 0 0-.598-.666.628.628 0 0 0-.665.597.631.631 0 0 0 .597.666Zm-3.43 6.467a.633.633 0 1 0-.568-1.13.633.633 0 0 0 .568 1.13Zm3.84-5.541a1.074 1.074 0 1 0 1.8 1.178 1.074 1.074 0 0 0-.9-1.665c-.363 0-.7.183-.9.486Zm1.873 4.505a1.075 1.075 0 0 0-1.447-.478 1.075 1.075 0 0 0-.477 1.447c.268.533.917.747 1.446.478.529-.265.747-.905.482-1.438 0-.004 0-.004-.004-.009Zm1.881-.077a.628.628 0 0 0-.874.184.628.628 0 0 0 .183.875c.294.192.687.11.875-.184a.63.63 0 0 0-.184-.875Zm2.065-1.618a.536.536 0 0 0-.508-.567.536.536 0 0 0-.567.508.536.536 0 0 0 .508.567.542.542 0 0 0 .567-.507Zm1.489-.383a.348.348 0 1 0-.038.695.348.348 0 0 0 .038-.695Zm-1.403 3.456a.446.446 0 0 0-.615.128.446.446 0 0 0 .128.615.446.446 0 0 0 .615-.128.442.442 0 0 0-.128-.615Zm-9.891 3.251a.35.35 0 0 0-.482.098.35.35 0 0 0 .099.482.35.35 0 0 0 .482-.098.343.343 0 0 0-.099-.482Zm7.305-.034a.352.352 0 0 0-.154.47c.086.17.3.239.47.153a.347.347 0 0 0 .153-.465.345.345 0 0 0-.469-.158c.004 0 0 0 0 0Zm-4.045-3.516a1.08 1.08 0 0 0-.31-1.493 1.08 1.08 0 0 0-1.494.311 1.076 1.076 0 0 0 .9 1.668c.367.005.704-.179.904-.486Zm-2.154 1.652a.541.541 0 0 0-.747.153.541.541 0 0 0 .153.747.541.541 0 0 0 .747-.154.534.534 0 0 0-.153-.746Zm2.513 2.06a.45.45 0 0 0-.47.418.447.447 0 0 0 .419.47.446.446 0 0 0 .469-.415.451.451 0 0 0-.418-.473ZM12 15.71a.628.628 0 0 0-.666.598.628.628 0 0 0 .598.665.631.631 0 0 0 .665-.597.63.63 0 0 0-.597-.666Zm2.59.683a.54.54 0 1 0 .49.96.54.54 0 0 0-.49-.96Z"/>
</svg>
