<svg xmlns="http://www.w3.org/2000/svg" width="18" height="18" fill="none" viewBox="0 0 18 18">
  <g clip-path="url(#a)" filter="url(#b)">
    <path fill="#5ED5A8" d="M9 0a8.98 8.98 0 0 1 3.898.885c-.484.383-.932.75-1.35 1.103a7.442 7.442 0 0 0-2.546-.447 7.43 7.43 0 0 0-5.274 2.185A7.434 7.434 0 0 0 1.543 9c0 2.06.835 3.924 2.185 5.274a7.434 7.434 0 0 0 5.274 2.185 7.43 7.43 0 0 0 5.273-2.185A7.434 7.434 0 0 0 16.46 9a7.5 7.5 0 0 0-.137-1.433c.386-.504.782-1.007 1.188-1.506.318.92.49 1.91.49 2.939a8.973 8.973 0 0 1-2.636 6.364A8.973 8.973 0 0 1 9.002 18a8.973 8.973 0 0 1-6.364-2.636A8.968 8.968 0 0 1 0 9a8.973 8.973 0 0 1 2.636-6.364A8.973 8.973 0 0 1 9 0ZM4.807 7.521l2.196-.029.164.043a8.47 8.47 0 0 1 2.056 1.658 31.67 31.67 0 0 1 2.514-3.502 29.996 29.996 0 0 1 3.084-3.208l.214-.082h2.396l-.483.536a51.202 51.202 0 0 0-4.049 5.113 49.853 49.853 0 0 0-3.274 5.447l-.3.581-.278-.592a14.367 14.367 0 0 0-1.851-3.001 12.08 12.08 0 0 0-2.568-2.376l.18-.588Z"/>
  </g>
  <defs>
    <clipPath id="a">
      <path fill="#fff" d="M0 0h18v18H0z"/>
    </clipPath>
    <filter id="b" width="50.002" height="50" x="-16" y="-11" color-interpolation-filters="sRGB" filterUnits="userSpaceOnUse">
      <feFlood flood-opacity="0" result="BackgroundImageFix"/>
      <feColorMatrix in="SourceAlpha" result="hardAlpha" values="0 0 0 0 0 0 0 0 0 0 0 0 0 0 0 0 0 0 127 0"/>
      <feOffset dy="5"/>
      <feGaussianBlur stdDeviation="8"/>
      <feComposite in2="hardAlpha" operator="out"/>
      <feColorMatrix values="0 0 0 0 0.368627 0 0 0 0 0.835294 0 0 0 0 0.658824 0 0 0 0.02 0"/>
      <feBlend in2="BackgroundImageFix" result="effect1_dropShadow_858_17477"/>
      <feBlend in="SourceGraphic" in2="effect1_dropShadow_858_17477" result="shape"/>
    </filter>
  </defs>
</svg>
