<svg xmlns="http://www.w3.org/2000/svg" width="41" height="44" fill="none" viewBox="0 0 41 44">
  <path stroke="#3E474F" stroke-linecap="round" stroke-linejoin="round" stroke-width="1.5" d="m12.22 16.42-1.74-1.74-1.73 1.74m18.53 1.16 1.74 1.74 1.74-1.74"/>
  <path stroke="#3E474F" stroke-linecap="round" stroke-linejoin="round" stroke-width="1.5" d="M29.01 19.32V17c0-5.12-4.15-9.26-9.26-9.26-2.92 0-5.53 1.36-7.23 3.47m-2.03 3.47V17c0 5.12 4.15 9.26 9.26 9.26 2.92 0 5.53-1.36 7.23-3.47"/>
  <g filter="url(#a)">
    <path stroke="#5ED5A8" stroke-linecap="round" stroke-linejoin="round" stroke-miterlimit="10" stroke-width="1.5" d="M16.75 13.5h4.38c.97 0 1.75.88 1.75 1.75 0 .97-.78 1.75-1.75 1.75h-4.38v-3.5Zm0 3.5h5c1.1 0 2 .78 2 1.75s-.9 1.75-2 1.75h-5V17Zm2.8 3.5v1.75m0-10.5v1.75"/>
  </g>
  <defs>
    <filter id="a" width="40.5" height="44" x="0" y="0" color-interpolation-filters="sRGB" filterUnits="userSpaceOnUse">
      <feFlood flood-opacity="0" result="BackgroundImageFix"/>
      <feColorMatrix in="SourceAlpha" result="hardAlpha" values="0 0 0 0 0 0 0 0 0 0 0 0 0 0 0 0 0 0 127 0"/>
      <feOffset dy="5"/>
      <feGaussianBlur stdDeviation="8"/>
      <feComposite in2="hardAlpha" operator="out"/>
      <feColorMatrix values="0 0 0 0 0.368627 0 0 0 0 0.835294 0 0 0 0 0.658824 0 0 0 0.25 0"/>
      <feBlend in2="BackgroundImageFix" result="effect1_dropShadow_858_16924"/>
      <feBlend in="SourceGraphic" in2="effect1_dropShadow_858_16924" result="shape"/>
    </filter>
  </defs>
</svg>
