<svg xmlns="http://www.w3.org/2000/svg" width="18" height="18" fill="none" viewBox="0 0 18 18">
  <path fill="#5ED5A8" d="M11.318 18H3.34C1.5 18 0 16.738 0 15.187V5.66c0-1.55 1.499-2.812 3.341-2.812h7.977c1.842 0 3.34 1.261 3.34 2.812v9.527c0 1.551-1.498 2.813-3.34 2.813ZM3.34 4.254c-.921 0-1.67.63-1.67 1.406v9.527c0 .776.749 1.407 1.67 1.407h7.977c.92 0 1.67-.631 1.67-1.407V5.66c0-.775-.75-1.406-1.67-1.406H3.34ZM18 13.43V2.813C18 1.262 16.501 0 14.659 0H5.387c-.46 0-.835.315-.835.703 0 .388.374.703.835.703h9.272c.921 0 1.67.631 1.67 1.407V13.43c0 .388.374.703.836.703.461 0 .835-.315.835-.703Z"/>
</svg>
