<svg xmlns="http://www.w3.org/2000/svg" width="24" height="24" fill="none" viewBox="0 0 24 24">
  <path fill="#3E474F" d="M12.69 3.99V10h-1.5V3.99c0-.41.34-.75.75-.75s.75.34.75.75Z"/>
  <path fill="#3E474F" fill-rule="evenodd" d="M21.14 9.9c.48 0 .86.38.86.86 0 5.88-4.12 10-10.01 10s-10-4.11-10-10c0-.48.39-.86.86-.86h8.34v3.66L9.62 12a.754.754 0 0 0-1.06 0c-.15.15-.22.34-.22.53s.07.38.22.53l2.85 2.84c.29.3.76.3 1.05 0l2.85-2.84c.29-.29.29-.77 0-1.06a.754.754 0 0 0-1.06 0l-1.56 1.56V9.9h8.45Z" clip-rule="evenodd"/>
</svg>
