<svg xmlns="http://www.w3.org/2000/svg" width="46" height="53" fill="none" viewBox="0 0 46 53">
  <g filter="url(#a)">
    <path stroke="#5ED5A8" stroke-linecap="round" stroke-linejoin="round" stroke-miterlimit="10" stroke-width="1.5" d="m20.974 12.553-3.74 4.66c-.85 1.06-.55 2.42.66 3.02l3.73 1.87c.49.24 1.29.24 1.78 0l3.73-1.87c1.21-.61 1.51-1.97.66-3.02l-3.73-4.66c-.84-1.07-2.24-1.07-3.09 0Zm1.55-.75v5.26"/>
    <path stroke="#5ED5A8" stroke-linecap="round" stroke-linejoin="round" stroke-miterlimit="10" stroke-width="1.5" d="m18.324 20.212 4.2-3.15 4.2 3.15m-7.43 3.72 1.61.72a4 4 0 0 0 3.25 0l1.61-.72c1.44-.64 2.77 1.1 1.77 2.32l-3.46 4.23c-.85 1.04-2.24 1.04-3.1 0l-3.45-4.23c-1.01-1.22.32-2.96 1.77-2.32Z"/>
  </g>
  <defs>
    <filter id="a" width="45.028" height="53.012" x="0" y="0" color-interpolation-filters="sRGB" filterUnits="userSpaceOnUse">
      <feFlood flood-opacity="0" result="BackgroundImageFix"/>
      <feColorMatrix in="SourceAlpha" result="hardAlpha" values="0 0 0 0 0 0 0 0 0 0 0 0 0 0 0 0 0 0 127 0"/>
      <feOffset dy="5"/>
      <feGaussianBlur stdDeviation="8"/>
      <feComposite in2="hardAlpha" operator="out"/>
      <feColorMatrix values="0 0 0 0 0.368627 0 0 0 0 0.835294 0 0 0 0 0.658824 0 0 0 0.25 0"/>
      <feBlend in2="BackgroundImageFix" result="effect1_dropShadow_858_17006"/>
      <feBlend in="SourceGraphic" in2="effect1_dropShadow_858_17006" result="shape"/>
    </filter>
  </defs>
</svg>
