<svg xmlns="http://www.w3.org/2000/svg" width="26" height="26" fill="none" viewBox="0 0 26 26">
  <g clip-path="url(#a)">
    <path fill="#1877F2" d="M25.992 0H.008A.008.008 0 0 0 0 .008v25.984c0 .005.003.008.008.008h25.984a.008.008 0 0 0 .008-.008V.008A.008.008 0 0 0 25.992 0Z"/>
    <path fill="#fff" d="M18.058 16.758 18.637 13H15.03v-2.438c0-1.025.503-2.03 2.118-2.03h1.64v-3.2s-1.488-.254-2.91-.254c-2.97 0-4.91 1.798-4.91 5.058V13h-3.3v3.758h3.3V26h4.063v-9.242h3.027Z"/>
  </g>
  <defs>
    <clipPath id="a">
      <rect width="26" height="26" fill="#fff" rx="13"/>
    </clipPath>
  </defs>
</svg>
