<svg xmlns="http://www.w3.org/2000/svg" width="22" height="22" fill="none" viewBox="0 0 22 22">
  <path fill="#B4B9C7" d="M8.885 13.539a.845.845 0 0 1-.7-.372L.145 1.321a.846.846 0 0 1 1.4-.95l8.039 11.846a.846.846 0 0 1-.7 1.322Zm4.229 0a.846.846 0 0 1-.7-1.321L20.455.37a.846.846 0 0 1 1.4.95l-8.039 11.846a.845.845 0 0 1-.7.372Z"/>
  <path fill="#B4B9C7" d="M8.885 22a.846.846 0 0 1-.846-.847v-8.461a.846.846 0 0 1 1.692 0v8.461c0 .467-.38.847-.846.847Zm4.23-3.526a.846.846 0 0 1-.846-.846v-4.936a.847.847 0 0 1 1.692 0v4.936a.846.846 0 0 1-.846.846Zm8.039-16.781H.846a.846.846 0 0 1 0-1.692h20.308a.846.846 0 0 1 0 1.692Z"/>
  <path fill="#B4B9C7" d="M8.885 22a.846.846 0 0 1-.542-1.496l4.23-3.526a.846.846 0 1 1 1.084 1.3l-4.23 3.526a.842.842 0 0 1-.542.196Z"/>
</svg>
