<svg xmlns="http://www.w3.org/2000/svg" width="26" height="26" fill="none" viewBox="0 0 26 26">
  <g clip-path="url(#a)">
    <path fill="#34A853" d="M13 18.769a5.68 5.68 0 0 1-5.525-4.225l-5.444 5.444A13.017 13.017 0 0 0 13 26a12.73 12.73 0 0 0 6.906-2.031l-5.443-5.444A4.6 4.6 0 0 1 13 18.77Z"/>
    <path fill="#4285F4" d="M26 11.213c-.081-.407-.406-.65-.813-.65H13c-.488 0-.813.324-.813.812v4.063c0 .487.325.812.813.812h4.306c-.731 1.137-1.787 1.869-2.844 2.275l5.444 5.444A12.902 12.902 0 0 0 26 13v-.569c.081-.325.081-.731 0-1.218Z"/>
    <path fill="#FBBC05" d="M7.231 13c0-.488.082-.975.163-1.463L2.03 6.095A12.733 12.733 0 0 0 0 13c0 2.519.731 4.875 2.031 6.906l5.444-5.443A4.6 4.6 0 0 1 7.231 13Z"/>
    <path fill="#EA4335" d="M23.156 4.875c-.893-1.138-2.031-2.112-3.25-2.925C17.875.731 15.52 0 13 0A12.902 12.902 0 0 0 2.031 6.094l5.444 5.443C8.125 9.1 10.4 7.313 13 7.313a4.6 4.6 0 0 1 1.463.244c.73.244 1.38.65 2.112 1.219.244.244.569.244.894.081l5.444-2.681a.611.611 0 0 0 .406-.569c.081-.244 0-.487-.163-.731Z"/>
  </g>
  <defs>
    <clipPath id="a">
      <path fill="#fff" d="M0 0h26v26H0z"/>
    </clipPath>
  </defs>
</svg>
