<svg xmlns="http://www.w3.org/2000/svg" width="24" height="24" fill="none" viewBox="0 0 24 24">
  <circle cx="12" cy="12" r="12" fill="#7833F6"/>
  <path fill="#fff" fill-rule="evenodd" d="M7.7 12.052a1.027 1.027 0 0 0 1.45 0l2.901-2.901a1.027 1.027 0 0 0-.725-1.75c-.272 0-.533.107-.725.3L7.7 10.6a1.027 1.027 0 0 0 0 1.45Zm4.05 2.599 2.9-2.901a1.027 1.027 0 0 1 1.45 1.45l-2.9 2.901a1.027 1.027 0 0 1-1.45-1.45Zm-.213-1.363a1.027 1.027 0 0 1-.725-1.75l.725-.726a1.027 1.027 0 0 1 1.45 1.45l-.725.726c-.192.192-.453.3-.725.3Z" clip-rule="evenodd"/>
</svg>
