<svg xmlns="http://www.w3.org/2000/svg" width="53" height="53" fill="none" viewBox="0 0 53 53">
  <g filter="url(#a)">
    <path fill="#5ED5A8" d="m35 18.01-6.55-5.24c-1.28-1.02-3.28-1.03-4.55-.01l-6.55 5.25c-.94.75-1.51 2.25-1.31 3.43l1.26 7.54c.29 1.69 1.86 3.02 3.57 3.02h10.6c1.69 0 3.29-1.36 3.58-3.03l1.26-7.54c.18-1.17-.39-2.67-1.31-3.42ZM26.92 28c0 .41-.34.75-.75.75s-.75-.34-.75-.75v-3c0-.41.34-.75.75-.75s.75.34.75.75v3Z"/>
  </g>
  <defs>
    <filter id="a" width="52.343" height="52" x="0" y="1" color-interpolation-filters="sRGB" filterUnits="userSpaceOnUse">
      <feFlood flood-opacity="0" result="BackgroundImageFix"/>
      <feColorMatrix in="SourceAlpha" result="hardAlpha" values="0 0 0 0 0 0 0 0 0 0 0 0 0 0 0 0 0 0 127 0"/>
      <feOffset dy="5"/>
      <feGaussianBlur stdDeviation="8"/>
      <feComposite in2="hardAlpha" operator="out"/>
      <feColorMatrix values="0 0 0 0 0.368627 0 0 0 0 0.835294 0 0 0 0 0.658824 0 0 0 0.25 0"/>
      <feBlend in2="BackgroundImageFix" result="effect1_dropShadow_858_16851"/>
      <feBlend in="SourceGraphic" in2="effect1_dropShadow_858_16851" result="shape"/>
    </filter>
  </defs>
</svg>
