<svg xmlns="http://www.w3.org/2000/svg" width="52" height="53" fill="none" viewBox="0 0 52 53">
  <g filter="url(#a)">
    <path fill="#5ED5A8" d="m20.367 14.14.07 3.79c.01.52-.32 1.21-.74 1.52l-2.48 1.88c-1.59 1.2-1.33 2.67.57 3.27l3.23 1.01c.54.17 1.11.76 1.25 1.31l.77 2.94c.61 2.32 2.13 2.55 3.39.51l1.76-2.85c.32-.52 1.08-.91 1.68-.88l3.34.17c2.39.12 3.07-1.26 1.51-3.08l-1.98-2.3c-.37-.43-.54-1.23-.37-1.77l1.02-3.24c.59-1.9-.47-2.95-2.36-2.33l-2.95.97c-.5.16-1.25.05-1.67-.26l-3.08-2.22c-1.67-1.19-3-.49-2.96 1.56Z"/>
    <path fill="#3E474F" d="m16.217 30.47 3.03-3.03c.29-.29.77-.29 1.06 0 .29.29.29.77 0 1.06l-3.03 3.03c-.15.15-.34.22-.53.22s-.38-.07-.53-.22a.754.754 0 0 1 0-1.06Z"/>
  </g>
  <defs>
    <filter id="a" width="51.556" height="51.762" x="0" y="1" color-interpolation-filters="sRGB" filterUnits="userSpaceOnUse">
      <feFlood flood-opacity="0" result="BackgroundImageFix"/>
      <feColorMatrix in="SourceAlpha" result="hardAlpha" values="0 0 0 0 0 0 0 0 0 0 0 0 0 0 0 0 0 0 127 0"/>
      <feOffset dy="5"/>
      <feGaussianBlur stdDeviation="8"/>
      <feComposite in2="hardAlpha" operator="out"/>
      <feColorMatrix values="0 0 0 0 0.368627 0 0 0 0 0.835294 0 0 0 0 0.658824 0 0 0 0.25 0"/>
      <feBlend in2="BackgroundImageFix" result="effect1_dropShadow_858_16732"/>
      <feBlend in="SourceGraphic" in2="effect1_dropShadow_858_16732" result="shape"/>
    </filter>
  </defs>
</svg>
