<svg xmlns="http://www.w3.org/2000/svg" width="56" height="56" fill="none" viewBox="0 0 56 56">
  <g filter="url(#a)">
    <path fill="#3E474F" d="M38.75 26c-.41 0-.75.34-.75.75 0 2.96-2.06 5.44-4.83 6.09l.27-.45a.751.751 0 1 0-1.29-.77l-1.05 1.75c-.14.23-.14.52-.01.75.13.24.38.38.65.38 4.27 0 7.75-3.48 7.75-7.75a.74.74 0 0 0-.74-.75Z"/>
    <path fill="#5ED5A8" d="M23.75 11C19.48 11 16 14.48 16 18.75c0 .41.34.75.75.75s.75-.34.75-.75c0-2.96 2.06-5.44 4.83-6.09l-.27.45a.751.751 0 1 0 1.29.77l1.05-1.75c.13-.23.14-.51 0-.75a.752.752 0 0 0-.65-.38Z"/>
    <path fill="#3E474F" d="M37.25 19.45c0 3.08-2.24 5.62-5.17 6.09v-.02c-.29-3.73-3.31-6.77-7.09-7.07a6.158 6.158 0 0 1 6.09-5.17c3.41 0 6.17 2.76 6.17 6.17Z"/>
    <path fill="#5ED5A8" d="M25.56 24.98c0-.15-.17-.38-.38-.38h-2.06v.75h2.06c.21.01.38-.16.38-.37Zm.02 1.88h-2.46v.75h2.47c.32 0 .54-.2.54-.38s-.23-.37-.55-.37Z"/>
    <path fill="#5ED5A8" d="M30.58 25.63a6.174 6.174 0 0 0-5.68-5.68c-.16-.01-.31-.02-.48-.02a6.17 6.17 0 0 0-6.17 6.18c0 3.41 2.76 6.17 6.17 6.17s6.18-2.76 6.18-6.17c0-.17-.01-.32-.02-.48Zm-5 3.48h-.66v.38c0 .41-.34.75-.75.75s-.75-.34-.75-.75v-.38h-1.05c-.41 0-.75-.34-.75-.75v-4.5c0-.41.34-.75.75-.75h1.05v-.38c0-.41.34-.75.75-.75s.75.34.75.75v.38h.26c1 0 1.88.88 1.88 1.88 0 .29-.07.56-.19.81.46.34.75.86.75 1.44 0 1.03-.91 1.87-2.04 1.87Z"/>
  </g>
  <defs>
    <filter id="a" width="55.49" height="55.5" x="0" y="0" color-interpolation-filters="sRGB" filterUnits="userSpaceOnUse">
      <feFlood flood-opacity="0" result="BackgroundImageFix"/>
      <feColorMatrix in="SourceAlpha" result="hardAlpha" values="0 0 0 0 0 0 0 0 0 0 0 0 0 0 0 0 0 0 127 0"/>
      <feOffset dy="5"/>
      <feGaussianBlur stdDeviation="8"/>
      <feComposite in2="hardAlpha" operator="out"/>
      <feColorMatrix values="0 0 0 0 0.368627 0 0 0 0 0.835294 0 0 0 0 0.658824 0 0 0 0.25 0"/>
      <feBlend in2="BackgroundImageFix" result="effect1_dropShadow_858_16720"/>
      <feBlend in="SourceGraphic" in2="effect1_dropShadow_858_16720" result="shape"/>
    </filter>
  </defs>
</svg>
