<svg xmlns="http://www.w3.org/2000/svg" width="27" height="29" fill="none" viewBox="0 0 27 29">
  <path fill="#3E474F" d="m1.604 24.022 5.625-5.11c.538-.49 1.43-.49 1.968 0a1.192 1.192 0 0 1 0 1.788l-5.625 5.11a1.45 1.45 0 0 1-.984.371 1.45 1.45 0 0 1-.984-.37 1.191 1.191 0 0 1 0-1.789Z"/>
  <path fill="#3E474F" d="m7.132 7.48.078 3.767c.01.517-.357 1.202-.825 1.51l-2.764 1.868c-1.772 1.193-1.482 2.653.635 3.25l3.6 1.003c.602.17 1.237.755 1.393 1.302l.858 2.921c.68 2.305 2.374 2.534 3.779.507l1.961-2.832c.357-.517 1.204-.904 1.873-.874l3.722.168c2.664.12 3.421-1.252 1.683-3.06l-2.207-2.285c-.412-.428-.602-1.223-.412-1.76l1.136-3.219c.658-1.887-.523-2.93-2.63-2.315l-3.287.964c-.558.16-1.394.05-1.862-.258L10.431 5.93c-1.862-1.183-3.344-.487-3.3 1.55Z"/>
</svg>
