<svg xmlns="http://www.w3.org/2000/svg" width="50" height="53" fill="none" viewBox="0 0 50 53">
  <g filter="url(#a)">
    <path fill="#5ED5A8" d="M28.526 18.75c-.41 0-.75-.34-.75-.75v-3.5c0-1.08-.67-1.75-1.75-1.75h-3c-1.08 0-1.75.67-1.75 1.75V18c0 .41-.34.75-.75.75s-.75-.34-.75-.75v-3.5c0-1.91 1.34-3.25 3.25-3.25h3c1.91 0 3.25 1.34 3.25 3.25V18c0 .41-.34.75-.75.75Z"/>
    <path fill="#5ED5A8" d="M20.526 27.78a.749.749 0 1 1 0-1.5h11.76c.3 0 .53-.26.5-.56l-.68-5.69c-.24-1.94-.58-3.53-3.98-3.53h-7.2c-3.4 0-3.74 1.59-3.97 3.53l-.9 7.5c-.29 2.46.47 4.47 3.98 4.47h8.98c3.16 0 4.09-1.63 4.04-3.75a.49.49 0 0 0-.5-.47h-12.03Z"/>
  </g>
  <defs>
    <filter id="a" width="49.058" height="52.75" x="0" y=".25" color-interpolation-filters="sRGB" filterUnits="userSpaceOnUse">
      <feFlood flood-opacity="0" result="BackgroundImageFix"/>
      <feColorMatrix in="SourceAlpha" result="hardAlpha" values="0 0 0 0 0 0 0 0 0 0 0 0 0 0 0 0 0 0 127 0"/>
      <feOffset dy="5"/>
      <feGaussianBlur stdDeviation="8"/>
      <feComposite in2="hardAlpha" operator="out"/>
      <feColorMatrix values="0 0 0 0 0.368627 0 0 0 0 0.835294 0 0 0 0 0.658824 0 0 0 0.25 0"/>
      <feBlend in2="BackgroundImageFix" result="effect1_dropShadow_858_16857"/>
      <feBlend in="SourceGraphic" in2="effect1_dropShadow_858_16857" result="shape"/>
    </filter>
  </defs>
</svg>
