<svg xmlns="http://www.w3.org/2000/svg" width="52" height="53" fill="none" viewBox="0 0 52 53">
  <g filter="url(#a)">
    <path fill="#5ED5A8" d="M30 18h-8v8h8v-8ZM16 29c0 1.65 1.35 3 3 3s3-1.35 3-3v-3h-3c-1.65 0-3 1.35-3 3Z"/>
    <path fill="#3E474F" d="M19 12c-1.65 0-3 1.35-3 3s1.35 3 3 3h3v-3c0-1.65-1.35-3-3-3Z"/>
    <path fill="#5ED5A8" d="M36 15c0-1.65-1.35-3-3-3s-3 1.35-3 3v3h3c1.65 0 3-1.35 3-3Z"/>
    <path fill="#3E474F" d="M33 26h-3v3c0 1.65 1.35 3 3 3s3-1.35 3-3-1.35-3-3-3Z"/>
  </g>
  <defs>
    <filter id="a" width="52" height="52" x="0" y="1" color-interpolation-filters="sRGB" filterUnits="userSpaceOnUse">
      <feFlood flood-opacity="0" result="BackgroundImageFix"/>
      <feColorMatrix in="SourceAlpha" result="hardAlpha" values="0 0 0 0 0 0 0 0 0 0 0 0 0 0 0 0 0 0 127 0"/>
      <feOffset dy="5"/>
      <feGaussianBlur stdDeviation="8"/>
      <feComposite in2="hardAlpha" operator="out"/>
      <feColorMatrix values="0 0 0 0 0.368627 0 0 0 0 0.835294 0 0 0 0 0.658824 0 0 0 0.25 0"/>
      <feBlend in2="BackgroundImageFix" result="effect1_dropShadow_858_16747"/>
      <feBlend in="SourceGraphic" in2="effect1_dropShadow_858_16747" result="shape"/>
    </filter>
  </defs>
</svg>
