<svg xmlns="http://www.w3.org/2000/svg" width="19" height="18" fill="none" viewBox="0 0 19 18">
  <path fill="#5ED5A8" d="M9.23 17.927c-2.463 0-4.916-.375-7.255-1.123-.868-.274-1.527-.868-1.813-1.616-.287-.749-.191-1.607.276-2.356l1.213-1.936c.267-.429.506-1.232.506-1.734V7.244C2.157 3.51 5.326.48 9.23.48c3.904 0 7.073 3.03 7.073 6.765v1.918c0 .493.239 1.305.506 1.734l1.212 1.936a2.6 2.6 0 0 1 .23 2.337c-.297.776-.946 1.37-1.767 1.635a23.535 23.535 0 0 1-7.254 1.123Zm0-16.07c-3.112 0-5.642 2.42-5.642 5.396v1.918c0 .74-.305 1.808-.706 2.438L1.67 13.552c-.248.393-.306.813-.162 1.178.143.365.467.64.925.785a22.629 22.629 0 0 0 13.612 0c.41-.127.726-.42.869-.803a1.283 1.283 0 0 0-.115-1.16l-1.212-1.935c-.4-.63-.706-1.699-.706-2.438V7.262c-.01-2.985-2.54-5.405-5.651-5.405Z"/>
  <path fill="#5ED5A8" d="M13.029 7.564c0-.968-.402-1.897-1.118-2.582a3.908 3.908 0 0 0-2.7-1.07 3.908 3.908 0 0 0-2.7 1.07 3.573 3.573 0 0 0-1.118 2.582h7.636Z" opacity=".1"/>
  <path fill="#5ED5A8" d="M8.972 17.379a3.677 3.677 0 0 1-2.53-1.004 3.362 3.362 0 0 1-1.05-2.42h1.432c0 .539.23 1.068.63 1.452.401.383.955.602 1.518.602 1.184 0 2.148-.922 2.148-2.054h1.432c0 1.89-1.604 3.424-3.58 3.424Z"/>
  <ellipse cx="15.656" cy="4.181" fill="#DD4B4B" rx="3.248" ry="3.181"/>
</svg>
