<svg xmlns="http://www.w3.org/2000/svg" width="24" height="24" fill="none" viewBox="0 0 24 24">
  <circle cx="12" cy="12" r="12" fill="url(#a)"/>
  <path fill="#fff" fill-rule="evenodd" d="m6.784 6.99 1.267-.673.149.299 4.62-2.692-.299-.224-.372-.225-.15-.075-7.6 4.413v.15l2.162-1.197.223.224Zm0 2.842 3.651-2.169.15.3 4.693-2.693-.372-.224-.373-.15-.149-.075L4.4 10.58v.15l2.16-1.196.224.299Zm4.843-1.421-4.843 2.767-.223-.3L4.4 12.15v-.224l11.176-6.432.15.075.372.224.373.15-4.695 2.692-.149-.224Zm-4.843 4.113 6.035-3.44.15.224 4.694-2.617-.373-.225-.372-.224-.15-.075L4.4 13.347v.149l2.16-1.197.224.225Zm7.228-2.767-7.228 4.188-.223-.3L4.4 14.918v-.224L17.96 6.84l.224.15.298.15.373.224-4.694 2.692-.15-.3Zm5.29-2.094-.15-.15-14.752 8.6v.15l2.16-1.197.224.3 7.228-4.263.149.3L19.6 8.335v-.523l-.298-.15ZM6.56 16.413l-1.192.747-.224-.15L19.6 8.71v.972l-5.44 3.141-.148-.3-7.302 4.189-.15-.3Zm7.45-2.468.15.299 5.439-3.216v-.972L6.337 17.759l.224.074 1.192-.747.223.299 6.036-3.44Zm-4.99 3.888-1.267.674-.224-.075 12.07-6.955v.972l-5.438 3.14-.15-.298-4.842 2.842-.15-.3Zm-.075 1.347 1.267-.674.149.3 3.65-2.094.15.299L19.6 13.87v-1.047L8.72 19.105l.224.075Zm1.192.747-.223-.15 9.686-5.533v.972l-5.44 3.14-.148-.298-2.46 1.42-.148-.299-1.267.748Zm1.192.673 1.192-.747.224.299 1.267-.673.149.299 5.439-3.141V15.59l-8.42 4.936.15.074Zm2.385-16.227.372.224-4.694 2.692-.149-.299-2.459 1.42-.223-.298L4.4 9.383v-.224l8.792-5.086.15.15.372.15Z" clip-rule="evenodd"/>
  <defs>
    <linearGradient id="a" x1="0" x2="24" y1="24" y2="24" gradientUnits="userSpaceOnUse">
      <stop stop-color="#001C3A"/>
      <stop offset=".6" stop-color="#001E3D"/>
      <stop offset=".7" stop-color="#001F3F"/>
      <stop offset="1" stop-color="#002042"/>
    </linearGradient>
  </defs>
</svg>
