<svg xmlns="http://www.w3.org/2000/svg" width="22" height="22" fill="none" viewBox="0 0 22 22">
  <g clip-path="url(#a)">
    <path fill="#000" d="M0 4.125V.859A.86.86 0 0 1 .86 0h3.265a.86.86 0 1 1 0 1.719H1.719v2.406a.86.86 0 1 1-1.719 0ZM21.14 0h-3.265a.86.86 0 1 0 0 1.719h2.406v2.406a.86.86 0 0 0 1.719 0V.859A.86.86 0 0 0 21.14 0ZM4.126 20.281H1.719v-2.406a.86.86 0 1 0-1.719 0v3.266A.86.86 0 0 0 .86 22h3.265a.86.86 0 1 0 0-1.719Zm17.016-3.265a.86.86 0 0 0-.86.859v2.406h-2.406a.86.86 0 1 0 0 1.719h3.266a.86.86 0 0 0 .859-.86v-3.265a.86.86 0 0 0-.86-.86ZM10.248 4.232V9.39a.86.86 0 0 1-.86.859H4.233a.86.86 0 0 1-.859-.86V4.233a.86.86 0 0 1 .86-.859H9.39a.86.86 0 0 1 .859.86Zm-1.719.86H5.092v3.437h3.437V5.092Zm9.668 5.156h-5.156a.86.86 0 0 1-.86-.86V4.233a.86.86 0 0 1 .86-.859h5.156a.86.86 0 0 1 .86.86V9.39a.86.86 0 0 1-.86.859Zm-.86-5.156H13.9v3.437h3.438V5.092Zm-7.089 7.949v5.156a.86.86 0 0 1-.86.86H4.233a.86.86 0 0 1-.859-.86v-5.156a.86.86 0 0 1 .86-.86H9.39a.86.86 0 0 1 .859.86Zm-1.719.86H5.092v3.437h3.437V13.9Zm8.562 4.05h-2.944a.86.86 0 0 1-.859-.86v-2.944a.86.86 0 0 1 .86-.859h2.943a.86.86 0 0 1 .86.86v2.943a.86.86 0 0 1-.86.86Zm-.86-2.944h-1.224v1.224h1.224v-1.224Z"/>
  </g>
  <defs>
    <clipPath id="a">
      <path fill="#fff" d="M0 0h22v22H0z"/>
    </clipPath>
  </defs>
</svg>
