<svg xmlns="http://www.w3.org/2000/svg" width="44" height="44" fill="none" viewBox="0 0 44 44">
  <path fill="#5ED5A8" d="M21 30.75c-5.38 0-9.75-4.37-9.75-9.75s4.37-9.75 9.75-9.75 9.75 4.37 9.75 9.75-4.37 9.75-9.75 9.75Zm0-18c-4.55 0-8.25 3.7-8.25 8.25s3.7 8.25 8.25 8.25 8.25-3.7 8.25-8.25-3.7-8.25-8.25-8.25Zm9.16 20.04c-.08 0-.16-.01-.23-.02-.47-.06-1.32-.38-1.8-1.81-.25-.75-.16-1.5.25-2.07.41-.57 1.1-.89 1.89-.89 1.02 0 1.82.39 2.18 1.08.36.69.26 1.57-.31 2.42-.71 1.07-1.48 1.29-1.98 1.29Zm-.6-2.3c.17.52.41.78.57.8.16.02.46-.17.77-.62.29-.43.31-.74.24-.88s-.35-.29-.87-.29c-.31 0-.54.1-.67.27-.12.17-.14.43-.04.72Z"/>
  <path fill="#5ED5A8" d="M27.062 17.5a7 7 0 1 0-9.562 9.562L21 21l6.062-3.5Z" opacity=".1"/>
</svg>
