<svg xmlns="http://www.w3.org/2000/svg" width="44" height="44" fill="none" viewBox="0 0 44 44">
  <path fill="#5ED5A8" d="M27.66 32.67c-.53 0-1.21-.17-2.06-.67l-2.99-1.77c-.31-.18-.91-.18-1.21 0l-3 1.77c-1.77 1.05-2.81.63-3.28.29-.46-.34-1.18-1.21-.71-3.21l.71-3.07c.08-.32-.08-.87-.32-1.11l-2.48-2.48c-1.24-1.24-1.14-2.3-.97-2.82.17-.52.71-1.44 2.43-1.73l3.19-.53c.3-.05.73-.37.86-.64l1.77-3.53c.8-1.61 1.85-1.85 2.4-1.85.55 0 1.6.24 2.4 1.85l1.76 3.52c.14.27.57.59.87.64l3.19.53c1.73.29 2.27 1.21 2.43 1.73.16.52.26 1.58-.97 2.82L29.2 24.9c-.24.24-.39.78-.32 1.11l.71 3.07c.46 2-.25 2.87-.71 3.21-.25.18-.65.38-1.22.38ZM22 28.59c.49 0 .98.12 1.37.35l2.99 1.77c.87.52 1.42.52 1.63.37.21-.15.36-.68.14-1.66l-.71-3.07c-.19-.83.12-1.9.72-2.51l2.48-2.48c.49-.49.71-.97.61-1.3-.11-.33-.57-.6-1.25-.71l-3.19-.53c-.77-.13-1.61-.75-1.96-1.45l-1.76-3.52c-.32-.64-.72-1.02-1.07-1.02-.35 0-.75.38-1.06 1.02l-1.77 3.52c-.35.7-1.19 1.32-1.96 1.45l-3.18.53c-.68.11-1.14.38-1.25.71-.11.33.12.82.61 1.3l2.48 2.48c.6.6.91 1.68.72 2.51l-.71 3.07c-.23.99-.07 1.51.14 1.66.21.15.75.14 1.63-.37l2.99-1.77c.38-.23.87-.35 1.36-.35Z"/>
  <path fill="#5ED5A8" d="M17.63 25.334c.077-.326-.062-.793-.305-1.027l-1.691-1.62c-.53-.507-.738-1.047-.585-1.513.16-.467.654-.787 1.392-.907l2.17-.347c.314-.053.697-.32.843-.593l1.197-2.3c.348-.66.82-1.027 1.336-1.027.515 0 .988.367 1.336 1.027l1.197 2.3c.09.173.278.34.48.453l-7.495 7.181c-.097.093-.264.007-.236-.127l.362-1.5Z" opacity=".1"/>
</svg>
