<svg xmlns="http://www.w3.org/2000/svg" width="24" height="24" fill="none" viewBox="0 0 24 24">
  <circle cx="12" cy="12" r="12" fill="#5B6DEE"/>
  <path fill="#fff" fill-rule="evenodd" d="M8.727 11.477c.412-.074.83-.11 1.248-.108v.001c.844 0 1.465.081 2.087.162.62.08 1.242.162 2.086.162 2.285 0 3.852-.928 3.852-2.848C18 6.927 16.695 6 14.79 6c-3.111 0-5.724 2.36-6.063 5.477ZM6 15.354c0-1.92 1.567-2.848 3.852-2.848.843 0 1.465.081 2.086.162.621.082 1.243.163 2.087.163.418.002.836-.034 1.248-.108-.339 3.117-2.952 5.477-6.063 5.477-1.905 0-3.21-.927-3.21-2.846Z" clip-rule="evenodd"/>
</svg>
