<svg xmlns="http://www.w3.org/2000/svg" width="53" height="53" fill="none" viewBox="0 0 53 53">
  <g filter="url(#a)">
    <path fill="#5ED5A8" d="M24.25 20.03c0 .54.15.62.49.74l.51.18v-1.7h-.3c-.38 0-.7.35-.7.78Zm2.5 4.72h.3c.39 0 .7-.35.7-.78 0-.54-.15-.62-.49-.74l-.51-.18v1.7Z"/>
    <path fill="#5ED5A8" d="m33.58 15.48-2.05 2.05c-.15.15-.34.22-.53.22s-.38-.07-.53-.22a.754.754 0 0 1 0-1.06l2.05-2.05C30.76 12.92 28.49 12 26 12c-5.52 0-10 4.48-10 10s4.48 10 10 10 10-4.48 10-10c0-2.49-.92-4.76-2.42-6.52Zm-5.83 6.34c.64.23 1.5.69 1.5 2.16 0 1.25-.99 2.28-2.2 2.28h-.3v.25c0 .41-.34.75-.75.75s-.75-.34-.75-.75v-.25h-.08c-1.33 0-2.42-1.12-2.42-2.5 0-.42.34-.76.75-.76s.75.34.75.75c0 .55.41 1 .92 1h.08v-2.22l-1-.35c-.64-.23-1.5-.69-1.5-2.16 0-1.25.99-2.28 2.2-2.28h.3v-.24c0-.41.34-.75.75-.75s.75.34.75.75v.25h.08c1.33 0 2.42 1.12 2.42 2.5 0 .41-.34.75-.75.75s-.75-.34-.75-.75c0-.55-.41-1-.92-1h-.08v2.22l1 .35Zm8.94-10.11a.782.782 0 0 0-.41-.41.868.868 0 0 0-.28-.05h-4c-.41 0-.75.34-.75.75s.34.75.75.75h2.19l-1.67 1.67c.38.33.73.68 1.06 1.06l1.67-1.67V16c0 .41.34.75.75.75s.75-.34.75-.75v-4c0-.1-.02-.19-.06-.29Z"/>
  </g>
  <defs>
    <filter id="a" width="52.75" height="52.75" x="0" y=".25" color-interpolation-filters="sRGB" filterUnits="userSpaceOnUse">
      <feFlood flood-opacity="0" result="BackgroundImageFix"/>
      <feColorMatrix in="SourceAlpha" result="hardAlpha" values="0 0 0 0 0 0 0 0 0 0 0 0 0 0 0 0 0 0 127 0"/>
      <feOffset dy="5"/>
      <feGaussianBlur stdDeviation="8"/>
      <feComposite in2="hardAlpha" operator="out"/>
      <feColorMatrix values="0 0 0 0 0.368627 0 0 0 0 0.835294 0 0 0 0 0.658824 0 0 0 0.25 0"/>
      <feBlend in2="BackgroundImageFix" result="effect1_dropShadow_858_16879"/>
      <feBlend in="SourceGraphic" in2="effect1_dropShadow_858_16879" result="shape"/>
    </filter>
  </defs>
</svg>
